<svg xmlns="http://www.w3.org/2000/svg" version="1.1" xmlns:xlink="http://www.w3.org/1999/xlink" xmlns:svgjs="http://svgjs.dev/svgjs" width="2000" height="1247" viewBox="0 0 2000 1247"><g transform="matrix(1,0,0,1,-1.2121212121212466,0.504858299595071)"><svg viewBox="0 0 396 247" data-background-color="#ffffff" preserveAspectRatio="xMidYMid meet" height="1247" width="2000" xmlns="http://www.w3.org/2000/svg" xmlns:xlink="http://www.w3.org/1999/xlink"><g id="tight-bounds" transform="matrix(1,0,0,1,0.2400000000000091,-0.09999999999999432)"><svg viewBox="0 0 395.52 247.2" height="247.2" width="395.52"><g><svg></svg></g><g><svg viewBox="0 0 395.52 247.2" height="247.2" width="395.52"><g transform="matrix(1,0,0,1,75.54432,93.19920689609087)"><svg viewBox="0 0 244.43135999999998 60.80158620781824" height="60.80158620781824" width="244.43135999999998"><g><svg viewBox="0 0 244.43135999999998 60.80158620781824" height="60.80158620781824" width="244.43135999999998"><g><svg viewBox="0 0 244.43135999999998 60.80158620781824" height="60.80158620781824" width="244.43135999999998"><g><svg viewBox="0 0 244.43135999999998 60.80158620781824" height="60.80158620781824" width="244.43135999999998"><g id="textblocktransform"><svg viewBox="0 0 244.43135999999998 60.80158620781824" height="60.80158620781824" width="244.43135999999998" id="textblock"><g><svg viewBox="0 0 244.43135999999998 60.80158620781824" height="60.80158620781824" width="244.43135999999998"><g transform="matrix(1,0,0,1,0,0)"><svg width="244.43135999999998" viewBox="-0.13 -36.83 149.64 37.23" height="60.80158620781824" data-palette-color="#a23edc"><path d="M19.35-35.83L16.43-11.88Q15.7-5.93 12.71-2.76 9.73 0.4 4.78 0.4L4.78 0.4Q3.43 0.4 2.25 0.23 1.07 0.05-0.13-0.3L-0.13-0.3 0.23-3.03Q0.28-3.4 0.51-3.68 0.75-3.95 1.25-3.95L1.25-3.95Q1.5-3.95 1.83-3.89 2.15-3.83 2.56-3.74 2.98-3.65 3.51-3.59 4.05-3.53 4.75-3.53L4.75-3.53Q6.05-3.53 7.2-3.95 8.35-4.38 9.28-5.35 10.2-6.33 10.84-7.9 11.48-9.47 11.75-11.78L11.75-11.78 14.68-35.83 19.35-35.83ZM31.62-3.13L31.62-3.13Q33.45-3.13 34.95-4.13 36.45-5.13 37.5-6.79 38.55-8.45 39.12-10.63 39.7-12.8 39.7-15.18L39.7-15.18Q39.7-18.68 38.32-20.45 36.95-22.23 34.35-22.23L34.35-22.23Q32.5-22.23 31.01-21.24 29.52-20.25 28.47-18.59 27.42-16.93 26.85-14.75 26.27-12.58 26.27-10.2L26.27-10.2Q26.27-6.7 27.63-4.91 29-3.13 31.62-3.13ZM31.22 0.35L31.22 0.35Q29.15 0.35 27.42-0.36 25.7-1.07 24.45-2.43 23.2-3.78 22.5-5.73 21.8-7.68 21.8-10.18L21.8-10.18Q21.8-13.38 22.8-16.2 23.8-19.03 25.54-21.15 27.27-23.28 29.63-24.5 32-25.73 34.75-25.73L34.75-25.73Q36.82-25.73 38.55-25.01 40.27-24.3 41.52-22.95 42.77-21.6 43.47-19.64 44.17-17.68 44.17-15.2L44.17-15.2Q44.17-12.03 43.17-9.2 42.17-6.38 40.44-4.25 38.7-2.13 36.32-0.89 33.95 0.35 31.22 0.35ZM49.9 0L47.52 0 51.97-36.83 56.34-36.83 54.15-18.93Q55.09-20.45 56.2-21.71 57.3-22.98 58.5-23.85 59.7-24.73 61-25.21 62.3-25.7 63.65-25.7L63.65-25.7Q66.87-25.7 68.67-23.35 70.47-21 70.47-16.48L70.47-16.48Q70.47-14.43 70.05-12.38 69.62-10.33 68.83-8.46 68.05-6.6 66.93-4.99 65.82-3.38 64.46-2.19 63.09-1 61.5-0.33 59.9 0.35 58.15 0.35L58.15 0.35Q56.12 0.35 54.48-0.5 52.84-1.35 51.8-2.93L51.8-2.93 51.47-1.3Q51.27-0.65 50.96-0.33 50.65 0 49.9 0L49.9 0ZM61.97-22.13L61.97-22.13Q60.77-22.13 59.55-21.38 58.32-20.63 57.18-19.3 56.05-17.98 55.05-16.15 54.05-14.33 53.32-12.15L53.32-12.15 52.52-5.58Q53.47-4.23 54.8-3.66 56.12-3.1 57.5-3.1L57.5-3.1Q58.8-3.1 59.95-3.65 61.09-4.2 62.05-5.14 63-6.08 63.75-7.34 64.5-8.6 65.01-10.04 65.52-11.48 65.8-13.01 66.07-14.55 66.07-16.05L66.07-16.05Q66.07-19.03 65-20.58 63.92-22.13 61.97-22.13ZM90.99-22.88L89.87-21.28Q89.67-20.98 89.47-20.84 89.27-20.7 88.97-20.7L88.97-20.7Q88.62-20.7 88.21-20.98 87.79-21.25 87.21-21.59 86.62-21.93 85.77-22.21 84.92-22.5 83.72-22.5L83.72-22.5Q82.59-22.5 81.67-22.19 80.74-21.88 80.07-21.33 79.39-20.78 79.03-20.04 78.67-19.3 78.67-18.48L78.67-18.48Q78.67-17.3 79.44-16.6 80.22-15.9 81.39-15.39 82.57-14.88 83.93-14.4 85.29-13.93 86.47-13.2 87.64-12.48 88.42-11.35 89.19-10.23 89.19-8.43L89.19-8.43Q89.19-6.68 88.51-5.08 87.82-3.48 86.53-2.26 85.24-1.05 83.43-0.33 81.62 0.4 79.37 0.4L79.37 0.4Q76.94 0.4 75.08-0.46 73.22-1.33 72.04-2.68L72.04-2.68 73.14-4.38Q73.34-4.7 73.62-4.88 73.89-5.05 74.32-5.05L74.32-5.05Q74.72-5.05 75.12-4.7 75.52-4.35 76.12-3.91 76.72-3.48 77.63-3.13 78.54-2.78 79.94-2.78L79.94-2.78Q81.17-2.78 82.16-3.15 83.14-3.53 83.83-4.15 84.52-4.78 84.88-5.61 85.24-6.45 85.24-7.4L85.24-7.4Q85.24-8.68 84.47-9.43 83.69-10.18 82.52-10.68 81.34-11.18 79.99-11.61 78.64-12.05 77.47-12.74 76.29-13.43 75.52-14.53 74.74-15.63 74.74-17.45L74.74-17.45Q74.74-19.05 75.38-20.54 76.02-22.03 77.22-23.18 78.42-24.33 80.13-25.01 81.84-25.7 83.99-25.7L83.99-25.7Q86.27-25.7 88.01-24.94 89.74-24.18 90.99-22.88L90.99-22.88ZM95.22-4.78L95.22-4.78Q95.22-4.93 95.23-5.16 95.24-5.4 95.28-5.85 95.32-6.3 95.39-7.03 95.47-7.75 95.62-8.93L95.62-8.93 97.19-21.6 94.37-21.6Q94.04-21.6 93.83-21.79 93.62-21.98 93.62-22.38L93.62-22.38Q93.62-22.45 93.64-22.68 93.67-22.9 93.7-23.19 93.74-23.48 93.78-23.78 93.82-24.08 93.84-24.35L93.84-24.35 97.74-24.88 99.62-32.7Q99.72-33.08 99.99-33.31 100.27-33.55 100.67-33.55L100.67-33.55 103.02-33.55 101.92-24.83 108.57-24.83 108.19-21.6 101.52-21.6 99.99-9.15Q99.87-8.13 99.8-7.5 99.74-6.88 99.7-6.5 99.67-6.13 99.65-5.98 99.64-5.83 99.64-5.75L99.64-5.75Q99.64-4.48 100.23-3.86 100.82-3.25 101.84-3.25L101.84-3.25Q102.49-3.25 102.99-3.44 103.49-3.63 103.85-3.85 104.22-4.08 104.47-4.26 104.72-4.45 104.92-4.45L104.92-4.45Q105.12-4.45 105.23-4.35 105.34-4.25 105.47-4.03L105.47-4.03 106.39-1.9Q105.19-0.83 103.63-0.21 102.07 0.4 100.49 0.4L100.49 0.4Q98.07 0.4 96.67-0.93 95.27-2.25 95.22-4.78ZM130.39-19.9L130.39-19.9Q130.39-18.25 129.71-16.86 129.04-15.48 127.24-14.36 125.44-13.25 122.29-12.43 119.14-11.6 114.19-11.1L114.19-11.1Q114.16-10.83 114.16-10.56 114.16-10.3 114.16-10.03L114.16-10.03Q114.16-6.68 115.63-4.91 117.09-3.15 120.04-3.15L120.04-3.15Q121.24-3.15 122.18-3.4 123.11-3.65 123.85-4.01 124.59-4.38 125.15-4.81 125.71-5.25 126.19-5.61 126.66-5.98 127.06-6.23 127.46-6.48 127.86-6.48L127.86-6.48Q128.31-6.48 128.69-6.05L128.69-6.05 129.79-4.67Q128.51-3.35 127.3-2.41 126.09-1.48 124.81-0.85 123.54-0.23 122.15 0.06 120.76 0.35 119.16 0.35L119.16 0.35Q116.99 0.35 115.26-0.38 113.54-1.1 112.34-2.44 111.14-3.78 110.49-5.68 109.84-7.58 109.84-9.93L109.84-9.93Q109.84-11.88 110.25-13.81 110.66-15.75 111.45-17.5 112.24-19.25 113.38-20.75 114.51-22.25 115.98-23.34 117.44-24.43 119.2-25.05 120.96-25.68 122.99-25.68L122.99-25.68Q124.91-25.68 126.31-25.13 127.71-24.58 128.61-23.73 129.51-22.88 129.95-21.85 130.39-20.83 130.39-19.9ZM122.74-22.48L122.74-22.48Q121.16-22.48 119.84-21.83 118.51-21.18 117.49-20.04 116.46-18.9 115.74-17.36 115.01-15.83 114.61-14.05L114.61-14.05Q118.46-14.53 120.79-15.14 123.11-15.75 124.36-16.46 125.61-17.18 126.01-18 126.41-18.82 126.41-19.73L126.41-19.73Q126.41-20.18 126.21-20.66 126.01-21.15 125.58-21.55 125.14-21.95 124.44-22.21 123.74-22.48 122.74-22.48ZM137.54 0L133.19 0 136.24-25.35 138.46-25.35Q139.16-25.35 139.56-25.03 139.96-24.7 139.96-24.03L139.96-24.03Q139.96-23.93 139.95-23.74 139.94-23.55 139.92-23.35 139.91-23.15 139.9-23 139.89-22.85 139.89-22.83L139.89-22.83 139.54-18.23Q141.16-21.73 143.17-23.63 145.19-25.53 147.41-25.53L147.41-25.53Q148.46-25.53 149.51-25.08L149.51-25.08 148.71-20.8Q147.54-21.28 146.44-21.28L146.44-21.28Q144.01-21.28 142.11-18.91 140.21-16.55 138.94-11.75L138.94-11.75 137.54 0Z" opacity="1" transform="matrix(1,0,0,1,0,0)" fill="#a23edc" class="wordmark-text-0" data-fill-palette-color="primary" id="text-0"></path></svg></g></svg></g></svg></g></svg></g></svg></g></svg></g></svg></g><g><path d="M0 123.6c0-68.262 55.338-123.6 123.6-123.6 55.16 0 101.881 36.134 117.784 86.022h-2.882c-15.802-48.35-61.273-83.281-114.902-83.28-66.748 0-120.858 54.11-120.858 120.858 0 66.748 54.11 120.858 120.858 120.858 53.629 0 99.1-34.93 114.902-83.28l2.882 0c-15.903 49.889-62.624 86.022-117.784 86.022-68.262 0-123.6-55.338-123.6-123.6z" fill="#a23edc" stroke="transparent" data-fill-palette-color="tertiary"></path></g></svg></g><defs></defs></svg><rect width="395.52" height="247.2" fill="none" stroke="none" visibility="hidden"></rect></g></svg></g></svg>